<mxfile host="app.diagrams.net" modified="2023-07-03T04:26:01.394Z" agent="Mozilla/5.0 (Windows NT 10.0; Win64; x64) AppleWebKit/537.36 (KHTML, like Gecko) Chrome/114.0.0.0 Safari/537.36" etag="Cvi4W5M_xYTXFudP-Ah2" version="21.5.2" type="device">
  <diagram name="페이지-1" id="LRV9yE4w53HvQbfg9ijL">
    <mxGraphModel dx="529" dy="313" grid="1" gridSize="10" guides="1" tooltips="1" connect="1" arrows="1" fold="1" page="1" pageScale="1" pageWidth="827" pageHeight="1169" math="0" shadow="0">
      <root>
        <mxCell id="0" />
        <mxCell id="1" parent="0" />
        <mxCell id="JSBXhnSBdoEHyfM7yJ-U-1" value="" style="rounded=0;whiteSpace=wrap;html=1;" parent="1" vertex="1">
          <mxGeometry x="20" y="80" width="770" height="500" as="geometry" />
        </mxCell>
        <mxCell id="JSBXhnSBdoEHyfM7yJ-U-2" value="JS Runtime" style="rounded=1;whiteSpace=wrap;html=1;" parent="1" vertex="1">
          <mxGeometry x="20" y="20" width="120" height="60" as="geometry" />
        </mxCell>
        <mxCell id="JSBXhnSBdoEHyfM7yJ-U-3" value="" style="rounded=0;whiteSpace=wrap;html=1;" parent="1" vertex="1">
          <mxGeometry x="250" y="120" width="210" height="310" as="geometry" />
        </mxCell>
        <mxCell id="JSBXhnSBdoEHyfM7yJ-U-4" value="Memory Heap" style="rounded=1;whiteSpace=wrap;html=1;" parent="1" vertex="1">
          <mxGeometry x="250" y="120" width="210" height="40" as="geometry" />
        </mxCell>
        <mxCell id="JSBXhnSBdoEHyfM7yJ-U-7" value="" style="rounded=0;whiteSpace=wrap;html=1;" parent="1" vertex="1">
          <mxGeometry x="40" y="120" width="200" height="310" as="geometry" />
        </mxCell>
        <mxCell id="JSBXhnSBdoEHyfM7yJ-U-6" value="Call Stack" style="rounded=1;whiteSpace=wrap;html=1;" parent="1" vertex="1">
          <mxGeometry x="40" y="120" width="200" height="40" as="geometry" />
        </mxCell>
        <mxCell id="JSBXhnSBdoEHyfM7yJ-U-9" value="Event Loop" style="ellipse;shape=umlControl;whiteSpace=wrap;html=1;" parent="1" vertex="1">
          <mxGeometry x="30" y="490" width="70" height="80" as="geometry" />
        </mxCell>
        <mxCell id="JSBXhnSBdoEHyfM7yJ-U-11" value="Web API" style="rounded=1;whiteSpace=wrap;html=1;" parent="1" vertex="1">
          <mxGeometry x="660" y="90" width="120" height="40" as="geometry" />
        </mxCell>
        <mxCell id="JSBXhnSBdoEHyfM7yJ-U-13" value="" style="rounded=0;whiteSpace=wrap;html=1;" parent="1" vertex="1">
          <mxGeometry x="510" y="450" width="190" height="90" as="geometry" />
        </mxCell>
        <mxCell id="JSBXhnSBdoEHyfM7yJ-U-19" value="Callback Queue" style="rounded=1;whiteSpace=wrap;html=1;" parent="1" vertex="1">
          <mxGeometry x="510" y="410" width="190" height="40" as="geometry" />
        </mxCell>
        <mxCell id="JSBXhnSBdoEHyfM7yJ-U-25" value="Javascript Engine" style="swimlane;whiteSpace=wrap;html=1;" parent="1" vertex="1">
          <mxGeometry x="30" y="90" width="440" height="350" as="geometry" />
        </mxCell>
        <mxCell id="xzAWG37LkjonEWlrzQVd-4" value="anonymous&lt;br&gt;실행 컨텍스트&lt;br&gt;Execution Context&lt;br&gt;&lt;br&gt;" style="rounded=0;whiteSpace=wrap;html=1;" parent="1" vertex="1">
          <mxGeometry x="40" y="360" width="200" height="70" as="geometry" />
        </mxCell>
        <mxCell id="Q_Hf0I7lveaKG4zx03cb-3" style="edgeStyle=orthogonalEdgeStyle;rounded=0;orthogonalLoop=1;jettySize=auto;html=1;exitX=1;exitY=0.5;exitDx=0;exitDy=0;entryX=0;entryY=0.5;entryDx=0;entryDy=0;" edge="1" parent="1" source="2VnLEqfBXvOOu1eqTxHA-2" target="Q_Hf0I7lveaKG4zx03cb-2">
          <mxGeometry relative="1" as="geometry" />
        </mxCell>
        <mxCell id="Q_Hf0I7lveaKG4zx03cb-24" style="edgeStyle=orthogonalEdgeStyle;rounded=0;orthogonalLoop=1;jettySize=auto;html=1;exitX=1;exitY=0.75;exitDx=0;exitDy=0;entryX=0;entryY=0.25;entryDx=0;entryDy=0;" edge="1" parent="1" source="2VnLEqfBXvOOu1eqTxHA-2" target="Q_Hf0I7lveaKG4zx03cb-20">
          <mxGeometry relative="1" as="geometry">
            <Array as="points">
              <mxPoint x="230" y="420" />
              <mxPoint x="230" y="278" />
              <mxPoint x="369" y="278" />
            </Array>
          </mxGeometry>
        </mxCell>
        <mxCell id="Q_Hf0I7lveaKG4zx03cb-27" style="edgeStyle=orthogonalEdgeStyle;rounded=0;orthogonalLoop=1;jettySize=auto;html=1;exitX=0.75;exitY=0;exitDx=0;exitDy=0;entryX=0;entryY=0.5;entryDx=0;entryDy=0;fillColor=#dae8fc;strokeColor=#6c8ebf;" edge="1" parent="1" source="2VnLEqfBXvOOu1eqTxHA-2" target="Q_Hf0I7lveaKG4zx03cb-20">
          <mxGeometry relative="1" as="geometry" />
        </mxCell>
        <mxCell id="2VnLEqfBXvOOu1eqTxHA-2" value="function Test&lt;br&gt;const test&lt;br&gt;test.func()" style="rounded=0;whiteSpace=wrap;html=1;" parent="1" vertex="1">
          <mxGeometry x="40" y="390" width="90" height="40" as="geometry" />
        </mxCell>
        <mxCell id="Q_Hf0I7lveaKG4zx03cb-19" style="edgeStyle=orthogonalEdgeStyle;rounded=0;orthogonalLoop=1;jettySize=auto;html=1;exitX=0.5;exitY=0;exitDx=0;exitDy=0;entryX=0.25;entryY=1;entryDx=0;entryDy=0;" edge="1" parent="1" source="Q_Hf0I7lveaKG4zx03cb-8" target="Q_Hf0I7lveaKG4zx03cb-6">
          <mxGeometry relative="1" as="geometry" />
        </mxCell>
        <mxCell id="Q_Hf0I7lveaKG4zx03cb-2" value="function Test(){&lt;br&gt;this.testset&lt;br&gt;}" style="rounded=0;whiteSpace=wrap;html=1;" vertex="1" parent="1">
          <mxGeometry x="250" y="350" width="130" height="80" as="geometry" />
        </mxCell>
        <mxCell id="Q_Hf0I7lveaKG4zx03cb-6" value="{&lt;br&gt;func(){&lt;br&gt;}&lt;br&gt;}" style="rounded=0;whiteSpace=wrap;html=1;" vertex="1" parent="1">
          <mxGeometry x="260" y="170" width="130" height="65" as="geometry" />
        </mxCell>
        <mxCell id="Q_Hf0I7lveaKG4zx03cb-8" value="prototype" style="rounded=0;whiteSpace=wrap;html=1;" vertex="1" parent="1">
          <mxGeometry x="250" y="350" width="60" height="15" as="geometry" />
        </mxCell>
        <mxCell id="Q_Hf0I7lveaKG4zx03cb-14" style="edgeStyle=orthogonalEdgeStyle;rounded=0;orthogonalLoop=1;jettySize=auto;html=1;exitX=0.5;exitY=1;exitDx=0;exitDy=0;entryX=0.5;entryY=0;entryDx=0;entryDy=0;" edge="1" parent="1" source="Q_Hf0I7lveaKG4zx03cb-12" target="Q_Hf0I7lveaKG4zx03cb-13">
          <mxGeometry relative="1" as="geometry" />
        </mxCell>
        <mxCell id="Q_Hf0I7lveaKG4zx03cb-16" style="edgeStyle=orthogonalEdgeStyle;rounded=0;orthogonalLoop=1;jettySize=auto;html=1;exitX=0.5;exitY=1;exitDx=0;exitDy=0;entryX=0.5;entryY=0;entryDx=0;entryDy=0;" edge="1" parent="1" source="Q_Hf0I7lveaKG4zx03cb-12" target="Q_Hf0I7lveaKG4zx03cb-15">
          <mxGeometry relative="1" as="geometry" />
        </mxCell>
        <mxCell id="Q_Hf0I7lveaKG4zx03cb-18" style="edgeStyle=orthogonalEdgeStyle;rounded=0;orthogonalLoop=1;jettySize=auto;html=1;exitX=0.5;exitY=1;exitDx=0;exitDy=0;entryX=0.5;entryY=0;entryDx=0;entryDy=0;" edge="1" parent="1" source="Q_Hf0I7lveaKG4zx03cb-12" target="Q_Hf0I7lveaKG4zx03cb-17">
          <mxGeometry relative="1" as="geometry" />
        </mxCell>
        <mxCell id="Q_Hf0I7lveaKG4zx03cb-12" value="Object" style="rounded=0;whiteSpace=wrap;html=1;" vertex="1" parent="1">
          <mxGeometry x="660" y="130" width="60" height="15" as="geometry" />
        </mxCell>
        <mxCell id="Q_Hf0I7lveaKG4zx03cb-13" value="Node" style="rounded=0;whiteSpace=wrap;html=1;" vertex="1" parent="1">
          <mxGeometry x="560" y="195" width="60" height="15" as="geometry" />
        </mxCell>
        <mxCell id="Q_Hf0I7lveaKG4zx03cb-15" value="Number" style="rounded=0;whiteSpace=wrap;html=1;" vertex="1" parent="1">
          <mxGeometry x="640" y="195" width="60" height="15" as="geometry" />
        </mxCell>
        <mxCell id="Q_Hf0I7lveaKG4zx03cb-17" value="String" style="rounded=0;whiteSpace=wrap;html=1;" vertex="1" parent="1">
          <mxGeometry x="720" y="195" width="60" height="15" as="geometry" />
        </mxCell>
        <mxCell id="Q_Hf0I7lveaKG4zx03cb-20" value="new Test()&lt;br&gt;{&lt;br&gt;}" style="rounded=0;whiteSpace=wrap;html=1;" vertex="1" parent="1">
          <mxGeometry x="369" y="260" width="90" height="70" as="geometry" />
        </mxCell>
        <mxCell id="Q_Hf0I7lveaKG4zx03cb-26" style="edgeStyle=orthogonalEdgeStyle;rounded=0;orthogonalLoop=1;jettySize=auto;html=1;exitX=0.5;exitY=0;exitDx=0;exitDy=0;entryX=1;entryY=0.5;entryDx=0;entryDy=0;" edge="1" parent="1" source="Q_Hf0I7lveaKG4zx03cb-25" target="Q_Hf0I7lveaKG4zx03cb-6">
          <mxGeometry relative="1" as="geometry" />
        </mxCell>
        <mxCell id="Q_Hf0I7lveaKG4zx03cb-28" style="edgeStyle=orthogonalEdgeStyle;rounded=0;orthogonalLoop=1;jettySize=auto;html=1;exitX=0.25;exitY=0;exitDx=0;exitDy=0;entryX=1;entryY=0.75;entryDx=0;entryDy=0;fillColor=#dae8fc;strokeColor=#6c8ebf;" edge="1" parent="1" source="Q_Hf0I7lveaKG4zx03cb-25" target="Q_Hf0I7lveaKG4zx03cb-6">
          <mxGeometry relative="1" as="geometry" />
        </mxCell>
        <mxCell id="Q_Hf0I7lveaKG4zx03cb-25" value="prototype" style="rounded=0;whiteSpace=wrap;html=1;" vertex="1" parent="1">
          <mxGeometry x="399" y="260" width="60" height="15" as="geometry" />
        </mxCell>
      </root>
    </mxGraphModel>
  </diagram>
</mxfile>
